<?xml version="1.0" standalone="no"?>
<!DOCTYPE svg PUBLIC "-//W3C//DTD SVG 20010904//EN"
 "http://www.w3.org/TR/2001/REC-SVG-20010904/DTD/svg10.dtd">
<svg version="1.0" xmlns="http://www.w3.org/2000/svg"
 width="640.000000pt" height="640.000000pt" viewBox="0 0 640.000000 640.000000"
 preserveAspectRatio="xMidYMid meet">
<metadata>
Created by potrace 1.14, written by Peter Selinger 2001-2017
</metadata>
<g transform="translate(0.000000,640.000000) scale(0.100000,-0.100000)"
fill="#000000" stroke="none">
<path d="M451 6346 c-131 -177 -300 -493 -376 -701 -20 -55 -45 -112 -56 -127
-18 -26 -19 -49 -17 -725 1 -384 5 -621 8 -527 l5 171 60 50 c211 177 392 460
488 758 57 178 59 265 4 345 -54 82 -172 106 -309 64 -29 -9 -22 17 45 158 91
192 258 471 333 559 8 8 14 19 14 22 0 4 -36 7 -80 7 l-79 0 -40 -54z"/>
<path d="M5037 6323 c194 -218 332 -421 463 -682 158 -314 236 -585 286 -991
21 -174 23 -622 3 -690 -13 -44 -13 -40 -20 111 -23 527 -135 936 -374 1369
-50 90 -160 259 -195 299 -37 43 -34 13 7 -66 67 -127 117 -259 161 -418 166
-598 179 -1007 45 -1455 -43 -142 -53 -154 -77 -96 -21 49 -46 51 -114 5 -70
-48 -92 -50 -92 -9 0 24 4 30 21 30 33 0 59 19 59 43 0 30 -11 44 -43 56 -36
14 -34 33 6 78 66 75 187 249 187 268 0 9 54 88 73 107 18 19 21 36 11 62 -9
24 -43 19 -53 -6 -11 -30 -32 -47 -121 -100 -141 -85 -170 -93 -170 -50 0 11
-12 64 -26 118 -14 55 -25 112 -25 128 0 16 -6 34 -14 40 -7 6 -24 43 -38 81
-168 474 -560 1059 -909 1359 -70 59 -98 77 -98 61 0 -3 35 -43 78 -88 201
-214 396 -461 509 -647 153 -251 364 -685 387 -797 7 -34 1 -42 -91 -119 -86
-72 -168 -105 -189 -76 -7 9 -51 66 -98 126 -47 60 -86 114 -86 121 0 7 7 15
15 19 27 10 16 42 -24 68 -30 19 -43 23 -57 15 -19 -11 -21 -9 -119 108 -84
100 -211 223 -344 335 -29 25 -59 50 -65 55 -6 6 -65 53 -131 105 -71 56 -213
188 -345 321 -253 254 -381 369 -380 342 0 -4 42 -52 93 -105 412 -432 455
-480 626 -692 57 -70 151 -198 209 -283 116 -171 292 -451 292 -464 0 -18 -53
-42 -119 -55 -127 -24 -310 -107 -422 -191 -66 -49 -75 -53 -95 -42 -35 18
-242 185 -299 240 -92 89 -89 56 8 -82 39 -57 79 -114 87 -126 8 -11 36 -51
63 -88 26 -36 47 -70 47 -75 0 -14 -81 -160 -89 -160 -16 0 -19 13 -9 42 15
43 -8 56 -42 23 -15 -14 -31 -25 -37 -25 -18 0 -223 111 -255 138 -9 7 -30 21
-47 30 -97 54 -373 308 -440 406 -17 24 -35 46 -39 48 -17 7 -181 266 -229
363 -130 260 -163 386 -170 650 -3 99 -9 184 -13 189 -27 28 -24 -425 5 -634
41 -303 118 -554 250 -815 111 -221 246 -409 375 -525 68 -61 229 -179 245
-180 6 0 19 -8 30 -17 19 -15 18 -15 -15 -9 -39 7 -135 34 -165 46 -11 5 -45
16 -75 26 -152 47 -399 225 -549 394 -218 247 -338 463 -462 830 -128 376
-190 868 -144 1125 17 94 19 133 6 119 -16 -15 -51 -207 -51 -276 0 -52 -10
-88 -55 -208 -135 -354 -224 -747 -260 -1145 -21 -225 -21 -559 -1 -691 14
-91 69 -284 97 -335 21 -40 1 -30 -51 25 -229 242 -360 522 -427 909 -14 80
-18 158 -18 357 0 268 1 277 65 535 28 114 -7 60 -49 -75 -65 -209 -85 -380
-78 -640 5 -162 4 -202 -9 -235 -9 -22 -19 -56 -24 -75 -5 -19 -15 -60 -24
-90 -37 -131 -84 -399 -107 -615 -13 -129 -7 -566 10 -695 37 -280 133 -567
241 -725 52 -75 141 -143 275 -209 107 -53 106 -52 143 -61 58 -12 33 -25 -51
-25 -128 0 -265 52 -387 145 -57 44 -192 178 -232 230 -12 17 -30 38 -39 48
-9 10 -27 40 -40 67 -29 60 -51 74 -43 27 30 -179 237 -585 389 -762 92 -108
240 -269 269 -294 15 -14 33 -29 40 -35 50 -47 181 -134 276 -183 75 -38 81
-43 45 -37 -22 3 -56 10 -75 16 -36 11 -236 90 -280 111 -128 60 -349 265
-488 452 -12 17 -64 93 -116 170 -76 114 -105 168 -153 290 -101 253 -179 528
-224 790 -10 57 -62 311 -79 385 -23 99 18 -370 46 -530 78 -443 171 -707 353
-1009 34 -55 61 -104 61 -108 0 -4 -19 -20 -43 -35 -59 -38 -176 -154 -227
-227 -24 -34 -46 -58 -50 -54 -9 10 -52 152 -79 258 -17 68 -115 565 -157 793
-20 113 -44 342 -53 512 -8 133 -7 -244 1 -775 0 -44 -2 -134 -5 -200 -5 -95
-4 -111 4 -75 20 87 30 122 35 118 2 -3 18 -72 34 -154 37 -180 62 -277 101
-406 27 -88 29 -102 18 -135 -29 -90 -141 -287 -183 -322 -12 -10 -16 -30 -16
-75 l1 -61 25 30 c73 89 165 252 199 353 11 35 21 50 27 44 6 -6 -3 -47 -26
-113 -71 -208 -109 -498 -86 -666 l11 -87 -75 -73 c-81 -78 -96 -113 -50 -113
16 0 44 14 68 34 79 64 196 134 245 146 83 20 121 2 166 -77 18 -31 18 -32 -9
-67 l-27 -36 53 0 c30 0 79 9 111 20 71 25 94 25 102 0 5 -17 15 -20 66 -20
32 0 59 3 59 6 0 20 -39 65 -72 84 -33 19 -50 21 -101 17 -34 -3 -74 -9 -90
-13 -25 -6 -27 -4 -27 25 0 44 -23 85 -67 118 -33 26 -44 28 -122 28 -68 0
-96 -5 -131 -22 l-45 -21 -3 51 c-4 57 13 264 29 367 38 235 143 469 268 598
54 56 167 142 185 142 7 0 35 -28 63 -62 72 -89 256 -265 335 -321 92 -66 177
-102 336 -144 181 -47 287 -49 445 -7 60 16 109 34 109 39 1 6 -46 22 -103 37
-280 73 -467 187 -729 446 -110 108 -132 135 -119 142 9 5 70 19 135 32 101
18 155 22 359 22 266 1 366 -12 565 -76 180 -58 369 -172 565 -344 41 -35 80
-64 87 -64 7 0 58 45 113 100 l100 100 75 -32 c216 -90 469 -7 556 185 23 51
28 76 29 142 0 44 -4 90 -8 101 -6 18 0 27 45 57 65 43 83 62 103 110 20 47
19 140 -1 178 -8 17 -14 32 -12 35 8 8 240 94 345 128 341 110 695 125 962 41
112 -36 184 -84 294 -196 l97 -100 -37 -71 c-49 -93 -180 -232 -288 -303 -215
-143 -442 -216 -672 -215 -107 1 -272 37 -387 85 -51 21 -59 10 -18 -25 75
-62 230 -125 400 -162 136 -29 368 -29 504 0 210 45 395 131 572 264 137 103
157 100 72 -12 -106 -141 -300 -326 -444 -424 -54 -37 -84 -50 -150 -64 -141
-29 -98 -47 113 -47 83 0 151 -3 153 -7 1 -5 2 -55 2 -112 l0 -103 -106 -43
c-58 -23 -129 -54 -158 -69 -257 -137 -343 -214 -366 -326 -14 -66 4 -117 50
-143 33 -19 34 -22 19 -75 -18 -65 -7 -77 64 -77 47 1 58 3 45 11 -22 12 -25
96 -5 121 6 9 48 23 92 33 90 18 165 40 211 61 36 16 236 59 344 74 96 13 108
17 120 40 27 51 -38 79 -144 60 -205 -35 -362 -81 -533 -156 l-106 -46 -43 17
c-39 15 -44 20 -44 48 0 54 38 113 120 187 70 63 88 74 167 100 48 15 167 56
263 89 209 72 244 76 316 29 27 -18 89 -71 137 -119 l88 -87 -24 -49 c-65
-127 -205 -288 -341 -391 l-29 -22 80 0 81 0 65 70 c128 135 269 368 356 587
162 410 251 878 251 1328 0 126 5 194 25 307 51 302 55 544 14 828 -30 208
-87 430 -111 430 -6 0 -8 -10 -4 -22 18 -67 47 -276 62 -448 18 -220 10 -426
-26 -666 -63 -420 -236 -798 -487 -1060 -114 -119 -274 -231 -391 -275 -22 -8
-20 -4 13 23 209 171 364 367 450 568 36 85 40 130 10 130 -8 0 -21 -13 -30
-30 -13 -25 -80 -80 -215 -177 -123 -89 -364 -205 -495 -240 -137 -36 -155
-29 -40 17 127 51 279 159 375 268 179 203 250 461 251 907 1 330 -71 777
-156 968 -32 73 -32 86 5 199 38 114 73 252 97 378 14 74 18 146 18 320 0 247
-7 335 -41 490 -4 16 -2 22 4 15 14 -14 66 -222 96 -385 29 -154 56 -452 56
-616 0 -103 2 -112 23 -132 13 -12 29 -22 35 -22 18 0 37 47 67 165 27 106 28
117 28 380 1 272 -8 376 -49 605 -93 517 -360 1040 -731 1433 -39 40 -62 57
-80 57 -23 0 -19 -6 44 -77z m-3403 -1183 c34 -246 115 -514 222 -737 151
-315 299 -515 539 -729 134 -119 307 -221 440 -259 33 -9 103 -30 156 -46 86
-26 117 -30 278 -36 164 -6 181 -5 181 10 0 13 -9 17 -35 17 -19 0 -35 1 -35
3 0 1 24 28 54 60 29 32 71 80 92 107 22 27 42 49 46 50 3 0 16 -31 27 -69 37
-121 132 -243 240 -309 l34 -21 -34 -14 c-77 -33 -229 -110 -235 -118 -3 -5 1
-9 8 -9 23 0 164 48 240 81 40 18 93 38 118 45 25 7 110 40 190 72 129 53 329
115 488 152 32 7 56 19 59 29 4 9 14 28 24 42 49 70 62 234 30 357 -21 82 -17
86 49 54 44 -22 80 -75 80 -119 0 -40 -43 -173 -71 -222 -32 -54 -11 -50 38 7
41 48 48 52 89 52 49 0 62 -13 84 -85 26 -83 33 -95 51 -95 27 0 38 28 45 119
7 78 8 81 32 81 14 0 45 11 69 26 24 14 47 23 51 20 5 -3 17 -33 27 -68 24
-81 31 -90 66 -83 24 5 29 3 34 -17 3 -13 16 -68 29 -123 59 -246 76 -383 83
-671 6 -275 -4 -426 -42 -592 -6 -23 -7 -23 -49 18 -24 23 -59 52 -79 64 -20
11 -62 38 -93 60 -121 83 -276 124 -500 133 -206 8 -397 -10 -584 -57 -136
-33 -438 -167 -486 -215 -28 -28 -31 -75 -9 -128 21 -51 19 -110 -4 -131 -17
-15 -19 -15 -25 -1 -9 24 -28 411 -24 504 2 53 -1 85 -8 88 -5 2 -23 -24 -40
-58 -37 -78 -122 -157 -221 -206 -91 -45 -180 -53 -293 -28 -142 33 -135 34
-163 -21 -91 -179 -307 -234 -499 -126 -35 20 -50 24 -59 15 -8 -8 6 -34 53
-100 98 -135 99 -137 197 -303 89 -150 193 -301 212 -308 17 -6 9 -26 -23 -59
-18 -18 -41 -33 -53 -33 -12 0 -65 36 -121 83 -116 98 -264 193 -367 236 -152
63 -363 111 -559 126 -49 4 -88 10 -88 12 0 3 18 24 40 47 41 42 140 182 140
197 0 12 -14 11 -26 0 -17 -18 -189 -99 -234 -111 -57 -15 -121 -7 -233 30
-108 37 -137 55 -137 87 0 13 -21 126 -46 251 -66 321 -66 296 -8 316 62 21
62 21 66 -11 5 -43 39 -42 87 3 23 20 41 43 41 50 0 8 -25 40 -56 72 -31 31
-85 94 -120 140 -73 94 -72 86 -19 197 23 48 53 89 94 128 32 31 62 57 65 57
3 0 6 -40 6 -88 0 -107 18 -181 71 -290 46 -95 128 -185 197 -216 47 -21 53
-33 20 -41 -90 -20 -119 -25 -160 -25 -48 0 -69 -12 -46 -26 7 -5 56 -7 108
-7 88 2 106 6 225 51 160 61 305 104 499 151 166 40 197 61 92 61 -36 0 -66 4
-66 9 0 5 10 30 22 57 16 35 22 70 22 121 1 70 2 72 21 58 62 -45 135 -70 135
-46 0 26 -66 131 -126 201 -85 100 -174 199 -199 223 -16 16 -23 25 -15 21 29
-14 135 -92 154 -113 23 -25 54 -27 63 -4 8 21 -97 121 -172 164 -55 31 -109
38 -119 14 -4 -12 -12 -12 -53 6 -100 43 -174 57 -270 52 -88 -5 -93 -5 -145
25 -29 17 -64 42 -76 55 -20 21 -21 28 -11 50 9 21 8 29 -11 55 -20 28 -24 49
-33 207 -7 114 -7 182 -1 192 20 31 118 72 199 83 124 17 161 57 110 118 -33
40 -109 56 -224 49 l-83 -5 7 87 c14 175 58 453 101 646 31 133 105 418 112
429 4 6 10 -34 13 -89 4 -55 14 -152 23 -215z m3890 -125 c5 -19 4 -26 -2 -20
-5 6 -12 26 -16 45 -7 41 8 21 18 -25z m-1393 -232 c91 -96 199 -216 246 -278
l36 -46 -39 -40 c-21 -21 -43 -38 -48 -36 -20 7 -313 462 -302 469 22 15 34 7
107 -69z m-1824 -50 c207 -439 539 -784 953 -993 l60 -30 -30 -59 c-17 -32
-34 -76 -37 -96 -6 -36 -5 -37 18 -30 13 4 29 12 36 19 13 13 48 71 63 104 11
25 40 30 40 6 0 -9 -13 -46 -29 -82 -16 -37 -37 -89 -46 -115 -10 -27 -24 -51
-32 -54 -16 -6 -226 104 -323 171 -88 60 -232 202 -314 309 -75 99 -179 273
-206 344 -11 31 -29 74 -39 97 -41 89 -70 168 -101 272 -36 121 -59 214 -54
214 3 0 21 -35 41 -77z m2212 -400 c27 -38 47 -71 45 -75 -2 -3 -28 0 -57 8
-28 7 -65 14 -80 14 -16 0 -27 3 -25 8 2 4 15 31 27 60 13 28 27 52 32 52 5 0
31 -30 58 -67z m485 -10 c12 -42 36 -156 36 -173 0 -23 -52 -40 -118 -40 -38
0 -65 11 -111 47 -5 3 171 180 181 182 4 0 9 -7 12 -16z m-4100 -327 c23 -80
20 -96 -28 -145 -50 -51 -48 -61 -19 99 22 121 25 123 47 46z m3426 -128 c48
-25 113 -101 108 -127 -5 -26 -32 -18 -47 14 -19 43 -61 85 -98 101 -51 22
-79 18 -178 -21 -20 -8 -20 -8 -1 13 40 46 146 55 216 20z m-245 -85 c-8 -34
-11 -37 -24 -29 -7 5 -7 15 1 31 15 34 32 32 23 -2z m-3092 -40 c32 -67 121
-216 171 -288 55 -79 69 -111 53 -122 -63 -44 -153 -62 -214 -43 -21 6 -70 25
-110 42 -70 29 -72 31 -88 81 -19 58 -13 192 11 238 14 28 131 139 146 139 4
0 18 -21 31 -47z m4067 -23 c0 -33 -3 -35 -31 -20 -34 19 -23 42 24 49 4 0 7
-12 7 -29z m-1067 -75 c21 -70 54 -129 83 -152 27 -20 44 -24 116 -26 76 -2
89 1 149 30 47 24 74 44 93 73 14 22 26 44 26 49 0 12 108 19 138 9 12 -4 27
-20 33 -35 8 -23 6 -33 -19 -67 -20 -28 -28 -51 -27 -73 2 -22 -2 -33 -14 -36
-9 -3 -81 -23 -161 -45 -80 -23 -199 -59 -264 -81 -66 -22 -122 -39 -124 -36
-3 3 7 22 22 43 53 78 55 133 5 203 -20 29 -24 30 -76 24 -68 -7 -114 -39
-153 -107 l-27 -49 -31 37 c-47 56 -47 70 0 115 26 25 51 39 67 39 42 0 91 35
91 66 0 29 26 55 50 51 8 -1 19 -16 23 -32z m99 -26 c32 -57 83 -89 143 -89
48 0 52 2 107 61 57 62 89 73 96 36 3 -12 -16 -37 -54 -72 -49 -45 -67 -55
-114 -63 -107 -19 -191 26 -223 121 -8 25 -13 48 -10 51 11 11 34 -8 55 -45z
m-52 -164 c29 -31 31 -95 3 -133 -63 -85 -160 -96 -198 -22 -31 61 -6 123 66
158 59 29 100 28 129 -3z m-3207 -169 c23 -13 67 -32 98 -41 30 -10 64 -24 74
-31 18 -13 15 -18 -49 -82 -37 -38 -71 -73 -74 -79 -8 -11 -52 -36 -56 -31 -2
2 -15 29 -29 60 -27 57 -36 148 -21 206 8 27 6 27 57 -2z m1021 -171 c31 -9
64 -28 82 -46 25 -26 29 -37 28 -87 0 -112 -94 -222 -188 -222 -46 0 -85 16
-119 48 -68 64 -79 144 -31 232 24 46 36 57 74 72 57 21 88 22 154 3z m249
-146 c33 -18 37 -28 37 -99 0 -64 -25 -135 -63 -183 -8 -9 -83 -40 -168 -68
-126 -41 -166 -51 -220 -50 -37 0 -78 5 -91 10 -14 5 -44 7 -66 4 -34 -5 -44
-1 -66 20 -18 18 -26 37 -26 61 0 69 28 101 99 112 34 5 43 3 63 -18 13 -13
28 -33 35 -44 11 -17 12 -16 12 13 l1 32 46 -16 c112 -38 204 6 267 128 31 59
46 77 75 91 45 21 39 20 65 7z m-533 -121 c27 -30 25 -38 -9 -38 -17 0 -33 -4
-36 -10 -3 -5 -13 -10 -22 -10 -9 0 -29 -14 -46 -32 -29 -30 -31 -30 -44 -12
-7 10 -11 24 -9 31 3 7 1 13 -4 13 -6 0 4 15 21 33 20 20 33 27 36 20 3 -7 9
-13 14 -13 6 0 7 4 4 10 -3 5 7 12 22 16 24 5 38 9 50 13 1 1 11 -9 23 -21z
m-746 -52 c56 -141 233 -771 223 -799 -5 -15 -79 106 -123 200 -65 140 -102
257 -118 370 -21 153 -30 293 -18 293 6 0 21 -29 36 -64z m186 -160 c0 -43
-16 -47 -33 -11 -23 48 -22 57 8 43 15 -7 25 -19 25 -32z m2556 -628 c-3 -161
-8 -244 -16 -246 -26 -9 -42 -36 -36 -61 4 -14 9 -53 12 -87 8 -76 -15 -126
-95 -204 -137 -133 -291 -153 -459 -59 -52 29 -54 29 -85 14 l-32 -16 -41 44
c-22 25 -59 80 -81 124 -22 43 -51 96 -64 118 -53 94 -79 140 -79 146 0 4 9 9
20 12 13 3 27 22 37 46 14 36 21 42 82 63 78 27 160 101 192 174 15 34 25 45
37 41 138 -43 171 -48 254 -45 l87 3 38 -37 c22 -21 46 -38 54 -38 25 0 54 41
78 110 15 41 37 79 60 102 20 21 37 37 39 38 1 0 0 -109 -2 -242z m-140 90
c-27 -72 -33 -77 -56 -48 -26 33 -25 52 3 77 52 47 78 33 53 -29z m-814 -223
c13 -28 5 -55 -17 -55 -17 0 -97 69 -91 79 2 3 25 5 51 3 37 -3 49 -9 57 -27z
m3513 -223 c-15 -125 -74 -443 -90 -484 -4 -10 -10 -18 -14 -18 -3 0 -19 37
-34 83 -16 45 -39 105 -53 134 l-24 52 63 103 c55 88 86 148 151 287 11 24 11
24 14 2 2 -12 -4 -83 -13 -159z m-5191 29 c35 -27 70 -51 77 -53 20 -7 9 -14
-33 -22 -37 -7 -37 -7 -97 76 -34 46 -65 88 -69 93 -28 35 -18 33 17 -3 22
-23 70 -64 105 -91z m3973 -357 c-3 -3 -12 -4 -19 -1 -8 3 -5 6 6 6 11 1 17
-2 13 -5z m940 -125 c48 -144 86 -325 80 -384 -5 -48 -92 -265 -106 -265 -3 0
-21 25 -40 56 -58 96 -181 256 -260 337 -60 63 -73 80 -61 87 8 6 44 27 79 47
35 21 107 79 160 130 53 51 101 91 106 89 6 -1 24 -45 42 -97z m-396 -291 c86
-96 142 -168 136 -174 -2 -3 -21 5 -41 17 -40 23 -94 28 -167 15 l-46 -8 -7
69 c-9 101 12 171 49 157 6 -3 40 -37 76 -76z"/>
<path d="M4693 3278 c-25 -27 -133 -197 -133 -210 0 -23 25 -1 71 65 58 82 92
144 87 158 -2 6 -13 0 -25 -13z"/>
<path d="M4801 3241 c-59 -70 -131 -201 -112 -201 20 0 171 215 171 244 0 17
-22 1 -59 -43z"/>
<path d="M2495 2539 c-9 -13 3 -59 14 -59 13 0 20 25 14 49 -6 23 -18 27 -28
10z"/>
<path d="M1313 2218 c-45 -71 -69 -125 -59 -135 10 -10 51 43 86 111 53 104
34 120 -27 24z"/>
<path d="M1423 2207 c-33 -50 -63 -114 -63 -134 1 -15 4 -14 21 7 23 28 79
134 79 150 0 19 -15 10 -37 -23z"/>
<path d="M4442 3468 c2 -12 9 -23 16 -26 18 -6 15 35 -4 42 -11 4 -15 0 -12
-16z"/>
<path d="M4300 3421 c0 -12 5 -21 10 -21 6 0 10 6 10 14 0 8 -4 18 -10 21 -5
3 -10 -3 -10 -14z"/>
<path d="M4190 3370 c0 -11 5 -20 10 -20 6 0 10 9 10 20 0 11 -4 20 -10 20 -5
0 -10 -9 -10 -20z"/>
<path d="M1747 3089 c-79 -18 -117 -65 -117 -142 0 -90 75 -150 158 -128 140
38 178 231 52 266 -46 12 -55 13 -93 4z"/>
<path d="M1710 2620 c0 -5 5 -10 11 -10 5 0 7 5 4 10 -3 6 -8 10 -11 10 -2 0
-4 -4 -4 -10z"/>
<path d="M5270 6395 c0 -3 17 -29 38 -58 68 -92 216 -319 286 -437 38 -63 90
-151 116 -195 26 -44 78 -139 114 -212 36 -72 79 -148 96 -167 43 -49 163
-345 272 -671 27 -82 53 -159 58 -170 5 -11 23 -65 40 -120 17 -55 35 -109 40
-120 5 -11 14 -40 20 -65 36 -146 50 -155 50 -34 0 93 -3 108 -49 239 -93 268
-235 625 -338 849 -34 76 -63 142 -63 147 0 5 35 26 78 48 42 22 106 60 141
85 36 25 75 46 88 46 13 0 50 14 83 30 60 30 60 30 60 75 0 25 -3 45 -6 45 -3
0 -37 -19 -75 -41 -40 -24 -74 -38 -78 -33 -4 5 -16 39 -25 75 -17 65 -104
253 -146 317 -12 17 -20 32 -17 32 3 0 61 -29 129 -65 76 -40 137 -65 156 -65
56 0 61 19 60 258 l-1 212 -53 0 -54 0 11 -27 c6 -16 13 -99 16 -185 5 -142 4
-158 -10 -158 -26 0 -116 43 -241 115 -171 98 -187 78 -76 -97 39 -61 69 -115
68 -119 -5 -14 -290 -199 -298 -194 -5 3 -32 45 -61 93 -29 48 -90 145 -136
215 l-83 128 22 32 c12 18 50 69 85 115 l64 82 -190 0 c-105 0 -191 -2 -191
-5z m847 -572 c14 -32 38 -97 53 -145 22 -69 25 -90 15 -98 -7 -6 -68 -42
-136 -80 l-124 -70 -19 23 c-10 12 -42 70 -72 128 l-53 107 92 56 c51 31 115
73 142 95 28 22 56 40 63 40 7 1 25 -25 39 -56z"/>
<path d="M4 3515 c0 -115 2 -161 3 -102 2 59 2 154 0 210 -1 56 -3 8 -3 -108z"/>
<path d="M4735 2191 c-99 -51 -145 -131 -145 -257 0 -158 71 -234 222 -234 60
0 84 5 126 26 96 48 152 148 152 272 -1 88 -25 142 -81 179 -38 25 -53 28
-138 31 -81 2 -102 0 -136 -17z m260 -75 c45 -19 55 -42 55 -123 -1 -104 -35
-169 -115 -222 -35 -22 -51 -26 -121 -26 -73 0 -84 3 -118 28 -36 28 -37 30
-31 75 8 55 65 175 103 216 46 48 82 66 140 66 29 0 68 -6 87 -14z"/>
<path d="M4225 1161 c-89 -22 -185 -108 -206 -185 -25 -91 -7 -153 58 -203 85
-65 92 -68 188 -68 99 0 150 13 196 52 98 83 91 267 -14 360 -55 48 -138 64
-222 44z m250 -162 c21 -62 16 -139 -12 -177 -42 -58 -184 -101 -227 -69 -47
35 -6 192 64 247 34 27 136 63 152 54 3 -2 14 -27 23 -55z"/>
<path d="M6354 840 c-80 -281 -195 -548 -318 -744 -31 -48 -56 -90 -56 -92 0
-2 95 -4 210 -4 l210 0 0 80 0 79 -42 11 c-97 25 -92 14 -44 111 87 176 87
175 84 456 l-3 248 -41 -145z"/>
<path d="M557 910 c-101 -39 -172 -127 -211 -259 -21 -72 -20 -99 5 -167 28
-75 74 -123 155 -165 62 -31 75 -34 158 -34 83 0 97 3 159 33 156 77 251 295
186 428 -66 138 -301 223 -452 164z m367 -101 c14 -11 38 -41 52 -65 54 -92
16 -239 -89 -345 -28 -27 -64 -53 -80 -57 -43 -11 -156 4 -178 24 -45 40 -48
162 -8 269 22 59 103 155 151 178 48 24 119 22 152 -4z"/>
<path d="M2143 900 c-32 -13 -63 -68 -63 -112 0 -49 36 -78 97 -78 60 0 93 32
93 90 0 56 -12 75 -60 94 -22 9 -41 16 -43 15 -1 0 -12 -4 -24 -9z m91 -76 c3
-9 6 -22 6 -30 0 -19 -36 -54 -56 -54 -13 0 -15 7 -11 36 9 57 46 86 61 48z"/>
<path d="M1651 453 c-46 -24 -71 -61 -82 -119 -19 -98 14 -197 80 -241 40 -27
126 -31 169 -9 71 37 116 128 110 223 -6 104 -57 150 -175 159 -54 4 -75 2
-102 -13z m218 -82 c7 -5 16 -31 19 -59 9 -103 -58 -202 -139 -202 -45 0 -94
21 -103 45 -15 40 4 112 41 156 45 53 142 85 182 60z"/>
<path d="M4640 15 c0 -8 7 -15 16 -15 14 0 14 3 4 15 -7 8 -14 15 -16 15 -2 0
-4 -7 -4 -15z"/>
</g>
</svg>
